<svg id="a1c6ec4c-2acc-4232-8894-6a45e2969655" data-name="Vrstva 1" xmlns="http://www.w3.org/2000/svg" viewBox="0 0 28.8 28.8">
  <defs>
    <style>
      .\36 a6feb43-4977-4a99-a2c4-06f44952547c{fill:#fff;}.\30 f7e58bf-2607-4c16-b4c7-2866d351fadd,.\36 a6feb43-4977-4a99-a2c4-06f44952547c,.dc329aae-a0a7-4c7a-87ca-e790f0735b50{fill-rule:evenodd;}.dc329aae-a0a7-4c7a-87ca-e790f0735b50{fill:#2f2483;}.\30 f7e58bf-2607-4c16-b4c7-2866d351fadd{fill:#008acc;}
    </style>
  </defs>
  <title>logo-spstrutnov</title>
  <path class="6a6feb43-4977-4a99-a2c4-06f44952547c" d="M14.2226,26.3999a12.00005,12.00005,0,1,0-12-11.9999A12.02317,12.02317,0,0,0,14.2226,26.3999Z"/>
  <path class="6a6feb43-4977-4a99-a2c4-06f44952547c" d="M3.3829,13.5558l9.6882-3.5302,4.5377-1.6532v2.1929l5.6758-2.1572A10.79607,10.79607,0,0,1,25.094,14.4q0,.279-.0142.5545l-9.667,3.6742-4.5774,1.7396V18.0292l-5.83,2.1243A10.79378,10.79378,0,0,1,3.3506,14.4Q3.3506,13.974,3.3829,13.5558Z"/>
  <path class="dc329aae-a0a7-4c7a-87ca-e790f0735b50" d="M3.6337,16.8678,14.161,13.032l.2413-.0879v2.2624l10.2432-3.8934c.0341.1151.0669.2307.0973.3472L14.2855,15.6351l-.2432.0924V13.4572L3.7222,17.2176C3.691,17.102,3.6609,16.9852,3.6337,16.8678Z"/>
  <path class="dc329aae-a0a7-4c7a-87ca-e790f0735b50" d="M3.3673,15.0026l12.5935-4.5887.2412-.0879v2.2627l7.7848-2.9591c.053.1077.1043.216.1536.3257L16.0852,13.017l-.2432.0924v-2.27L3.3945,15.3748C3.3837,15.2515,3.3741,15.1274,3.3673,15.0026Z"/>
  <path class="dc329aae-a0a7-4c7a-87ca-e790f0735b50" d="M4.2058,18.6222l8.155-2.9716.2412-.0878v2.2626l12.4143-4.7186q.0222.18375.0377.3697L12.4852,18.2537l-.2432.0924v-2.27L4.3523,18.951C4.3019,18.8422,4.2528,18.733,4.2058,18.6222Z"/>
  <path class="0f7e58bf-2607-4c16-b4c7-2866d351fadd" d="M3.3829,13.5558l9.6882-3.5302,4.5377-1.6532v2.1929l5.6758-2.1572A10.86581,10.86581,0,0,0,3.3829,13.5558Z"/>
  <path class="0f7e58bf-2607-4c16-b4c7-2866d351fadd" d="M25.0798,14.9545l-9.667,3.6742-4.5774,1.7396V18.0292l-5.83,2.1243a10.86649,10.86649,0,0,0,20.0744-5.199Z"/>
</svg>
